<?xml version="1.0" encoding="utf-8"?>
<!-- Generator: Adobe Illustrator 27.5.0, SVG Export Plug-In . SVG Version: 6.00 Build 0)  -->
<svg version="1.1" id="Outline" xmlns="http://www.w3.org/2000/svg" xmlns:xlink="http://www.w3.org/1999/xlink" x="0px" y="0px"
	 viewBox="0 0 512 512" enable-background="new 0 0 512 512" xml:space="preserve">
<path d="M384,128L384,128c-8.3-8.3-21.8-8.3-30.2,0L256,225.8L158.2,128c-8.3-8.3-21.8-8.3-30.2,0l0,0c-8.3,8.3-8.3,21.8,0,30.2
	l97.8,97.8L128,353.8c-8.3,8.3-8.3,21.8,0,30.2l0,0c8.3,8.3,21.8,8.3,30.2,0l97.8-97.8l97.8,97.8c8.3,8.3,21.8,8.3,30.2,0l0,0
	c8.3-8.3,8.3-21.8,0-30.2L286.2,256l97.8-97.8C392.3,149.8,392.3,136.3,384,128z"/>
</svg>
